<?xml version="1.0" encoding="UTF-8"?>
<!DOCTYPE svg PUBLIC "-//W3C//DTD SVG 1.1//EN" "http://www.w3.org/Graphics/SVG/1.1/DTD/svg11.dtd">
<svg xmlns="http://www.w3.org/2000/svg" version="1.1" width="260px" height="250px" style="shape-rendering:geometricPrecision; text-rendering:geometricPrecision; image-rendering:optimizeQuality; fill-rule:evenodd; clip-rule:evenodd" xmlns:xlink="http://www.w3.org/1999/xlink">
<g><path style="opacity:1" fill="#ce9685" d="M 143.5,27.5 C 142.244,27.5386 141.244,27.0386 140.5,26C 120.833,25.3333 101.167,25.3333 81.5,26C 80.434,27.159 80.7673,27.9924 82.5,28.5C 83.1098,29.391 83.4431,30.391 83.5,31.5C 80.3128,29.6562 78.3128,26.9895 77.5,23.5C 98.5026,23.3334 119.503,23.5 140.5,24C 142.063,24.7589 143.063,25.9256 143.5,27.5 Z"/></g>
<g><path style="opacity:1" fill="#e37755" d="M 143.5,27.5 C 148.452,31.7852 153.119,36.4519 157.5,41.5C 158.096,43.7454 159.096,45.7454 160.5,47.5C 158.938,47.2671 157.605,46.6005 156.5,45.5C 156.137,43.2227 155.137,42.5561 153.5,43.5C 152.5,42.8333 151.5,42.1667 150.5,41.5C 149.772,38.7875 148.939,36.1209 148,33.5C 147.184,32.1772 146.017,31.5106 144.5,31.5C 143.177,29.3136 141.177,27.8136 138.5,27C 129.167,26.8333 119.833,26.6667 110.5,26.5C 100.809,26.5016 91.4752,27.1683 82.5,28.5C 80.7673,27.9924 80.434,27.159 81.5,26C 101.167,25.3333 120.833,25.3333 140.5,26C 141.244,27.0386 142.244,27.5386 143.5,27.5 Z"/></g>
<g><path style="opacity:1" fill="#f86842" d="M 144.5,31.5 C 144.082,35.5739 142.749,35.4073 140.5,31C 134.722,30.7812 129.055,31.1145 123.5,32C 126.006,33.2985 128.673,34.2985 131.5,35C 128.854,35.4974 126.187,35.6641 123.5,35.5C 123.66,37.1992 123.494,38.8659 123,40.5C 121.989,39.6634 120.822,39.33 119.5,39.5C 119.649,40.552 119.483,41.552 119,42.5C 116.588,43.9564 114.088,45.2897 111.5,46.5C 107.5,53.4317 105.334,52.765 105,44.5C 103.708,43.2089 102.542,43.2089 101.5,44.5C 97.6956,43.6532 96.0289,41.4865 96.5,38C 94.257,36.8638 91.9237,36.0305 89.5,35.5C 88.8333,35.5 88.1667,35.5 87.5,35.5C 87.5123,32.858 86.179,31.5246 83.5,31.5C 83.4431,30.391 83.1098,29.391 82.5,28.5C 91.4752,27.1683 100.809,26.5016 110.5,26.5C 119.833,26.6667 129.167,26.8333 138.5,27C 141.177,27.8136 143.177,29.3136 144.5,31.5 Z"/></g>
<g><path style="opacity:1" fill="#f97042" d="M 144.5,31.5 C 146.017,31.5106 147.184,32.1772 148,33.5C 148.939,36.1209 149.772,38.7875 150.5,41.5C 151.5,42.1667 152.5,42.8333 153.5,43.5C 155.137,42.5561 156.137,43.2227 156.5,45.5C 155.064,45.2917 153.73,46.125 152.5,48C 154.063,50.4763 153.396,51.9763 150.5,52.5C 148.595,49.8327 146.262,47.4994 143.5,45.5C 140.874,44.5508 138.208,44.5508 135.5,45.5C 135.259,48.999 136.092,49.3323 138,46.5C 139.11,48.0368 140.61,48.7035 142.5,48.5C 142.36,50.1238 143.027,51.2904 144.5,52C 139.948,54.772 134.948,56.1053 129.5,56C 129.833,56.3333 130.167,56.6667 130.5,57C 127.848,58.1532 125.848,59.9866 124.5,62.5C 123.311,63.4287 121.978,63.762 120.5,63.5C 119.167,63.5 117.833,63.5 116.5,63.5C 116.617,61.5165 115.95,59.8498 114.5,58.5C 111.721,56.376 108.721,54.7093 105.5,53.5C 103.909,50.6484 102.576,47.6484 101.5,44.5C 102.542,43.2089 103.708,43.2089 105,44.5C 105.334,52.765 107.5,53.4317 111.5,46.5C 114.088,45.2897 116.588,43.9564 119,42.5C 119.483,41.552 119.649,40.552 119.5,39.5C 120.822,39.33 121.989,39.6634 123,40.5C 123.494,38.8659 123.66,37.1992 123.5,35.5C 126.187,35.6641 128.854,35.4974 131.5,35C 128.673,34.2985 126.006,33.2985 123.5,32C 129.055,31.1145 134.722,30.7812 140.5,31C 142.749,35.4073 144.082,35.5739 144.5,31.5 Z"/></g>
<g><path style="opacity:1" fill="#da816c" d="M 83.5,31.5 C 86.179,31.5246 87.5123,32.858 87.5,35.5C 85.8333,34.5 84.5,33.1667 83.5,31.5 Z"/></g>
<g><path style="opacity:1" fill="#df8f76" d="M 87.5,35.5 C 88.1667,35.5 88.8333,35.5 89.5,35.5C 90.8121,37.4788 92.4788,39.1455 94.5,40.5C 95.1272,41.4168 95.4606,42.4168 95.5,43.5C 92.5,41.1667 89.8333,38.5 87.5,35.5 Z"/></g>
<g><path style="opacity:1" fill="#e97556" d="M 89.5,35.5 C 91.9237,36.0305 94.257,36.8638 96.5,38C 96.0289,41.4865 97.6956,43.6532 101.5,44.5C 102.576,47.6484 103.909,50.6484 105.5,53.5C 101.833,50.5 98.5,47.1667 95.5,43.5C 95.4606,42.4168 95.1272,41.4168 94.5,40.5C 92.4788,39.1455 90.8121,37.4788 89.5,35.5 Z"/></g>
<g><path style="opacity:1" fill="#e19674" d="M 157.5,41.5 C 163.5,46.8333 169.167,52.5 174.5,58.5C 170.909,56.8777 167.909,54.5443 165.5,51.5C 164.415,49.4131 162.749,48.0798 160.5,47.5C 159.096,45.7454 158.096,43.7454 157.5,41.5 Z"/></g>
<g><path style="opacity:1" fill="#f87640" d="M 156.5,45.5 C 157.605,46.6005 158.938,47.2671 160.5,47.5C 162.749,48.0798 164.415,49.4131 165.5,51.5C 165.762,52.9778 165.429,54.3112 164.5,55.5C 162.028,54.5799 160.362,55.5799 159.5,58.5C 157.345,58.162 155.011,58.162 152.5,58.5C 152.833,61.5 151.5,62.8333 148.5,62.5C 148.671,59.2027 148.005,58.8694 146.5,61.5C 145.534,63.396 145.201,65.396 145.5,67.5C 144.448,67.6495 143.448,67.4828 142.5,67C 143.622,63.0551 142.622,62.5551 139.5,65.5C 140.48,67.9509 141.313,70.2842 142,72.5C 141.667,72.8333 141.333,73.1667 141,73.5C 140.411,71.1367 138.911,70.1367 136.5,70.5C 136.329,73.4877 137.662,75.4877 140.5,76.5C 139.758,77.2868 138.925,77.9535 138,78.5C 134.859,75.5003 132.192,72.8337 130,70.5C 128.372,71.9617 128.205,73.6283 129.5,75.5C 127.366,74.2965 126.032,72.4632 125.5,70C 124.207,69.51 122.873,69.3433 121.5,69.5C 120.85,67.5648 120.517,65.5648 120.5,63.5C 121.978,63.762 123.311,63.4287 124.5,62.5C 125.848,59.9866 127.848,58.1532 130.5,57C 130.167,56.6667 129.833,56.3333 129.5,56C 134.948,56.1053 139.948,54.772 144.5,52C 143.027,51.2904 142.36,50.1238 142.5,48.5C 140.61,48.7035 139.11,48.0368 138,46.5C 136.092,49.3323 135.259,48.999 135.5,45.5C 138.208,44.5508 140.874,44.5508 143.5,45.5C 146.262,47.4994 148.595,49.8327 150.5,52.5C 153.396,51.9763 154.063,50.4763 152.5,48C 153.73,46.125 155.064,45.2917 156.5,45.5 Z"/></g>
<g><path style="opacity:1" fill="#f87c3e" d="M 165.5,51.5 C 167.909,54.5443 170.909,56.8777 174.5,58.5C 174.491,60.3084 174.991,61.9751 176,63.5C 180.953,66.2877 185.12,69.9544 188.5,74.5C 187.797,78.3368 186.464,78.5034 184.5,75C 185.167,74.6667 185.833,74.3333 186.5,74C 184.667,73.5 183.5,72.3333 183,70.5C 182.692,71.3081 182.192,71.9747 181.5,72.5C 180.264,71.7542 178.93,71.4208 177.5,71.5C 176.959,66.8842 175.626,66.5509 173.5,70.5C 170.212,71.4453 166.879,72.112 163.5,72.5C 163.36,74.1238 164.027,75.2904 165.5,76C 164.892,76.8699 164.059,77.3699 163,77.5C 160.244,76.0774 157.411,74.7441 154.5,73.5C 152.215,76.6599 149.882,79.8265 147.5,83C 148.333,85.1667 149.833,86.6667 152,87.5C 152.638,90.9301 151.138,92.2634 147.5,91.5C 146.167,91.5 144.833,91.5 143.5,91.5C 143.657,90.1266 143.49,88.7932 143,87.5C 138.836,86.4993 136.67,83.8326 136.5,79.5C 134.275,77.89 131.941,76.5566 129.5,75.5C 128.205,73.6283 128.372,71.9617 130,70.5C 132.192,72.8337 134.859,75.5003 138,78.5C 138.925,77.9535 139.758,77.2868 140.5,76.5C 137.662,75.4877 136.329,73.4877 136.5,70.5C 138.911,70.1367 140.411,71.1367 141,73.5C 141.333,73.1667 141.667,72.8333 142,72.5C 141.313,70.2842 140.48,67.9509 139.5,65.5C 142.622,62.5551 143.622,63.0551 142.5,67C 143.448,67.4828 144.448,67.6495 145.5,67.5C 145.201,65.396 145.534,63.396 146.5,61.5C 148.005,58.8694 148.671,59.2027 148.5,62.5C 151.5,62.8333 152.833,61.5 152.5,58.5C 155.011,58.162 157.345,58.162 159.5,58.5C 160.362,55.5799 162.028,54.5799 164.5,55.5C 165.429,54.3112 165.762,52.9778 165.5,51.5 Z"/></g>
<g><path style="opacity:1" fill="#e38463" d="M 105.5,53.5 C 108.721,54.7093 111.721,56.376 114.5,58.5C 115.95,59.8498 116.617,61.5165 116.5,63.5C 117.833,63.5 119.167,63.5 120.5,63.5C 120.517,65.5648 120.85,67.5648 121.5,69.5C 115.833,64.5 110.5,59.1667 105.5,53.5 Z"/></g>
<g><path style="opacity:1" fill="#e6966c" d="M 174.5,58.5 C 181.167,64.5 187.5,70.8333 193.5,77.5C 192.167,77.5 190.833,77.5 189.5,77.5C 189.737,76.209 189.404,75.209 188.5,74.5C 185.12,69.9544 180.953,66.2877 176,63.5C 174.991,61.9751 174.491,60.3084 174.5,58.5 Z"/></g>
<g><path style="opacity:1" fill="#cc7c71" d="M 88.5,73.5 C 86.2396,72.8611 84.2396,71.6945 82.5,70C 63.8363,69.5001 45.1696,69.3334 26.5,69.5C 26.5,70.5 26.5,71.5 26.5,72.5C 25.1882,71.8549 24.1882,70.8549 23.5,69.5C 43.8251,68.3336 64.1585,68.1669 84.5,69C 86.0414,70.3712 87.3747,71.8712 88.5,73.5 Z"/></g>
<g><path style="opacity:1" fill="#dd6251" d="M 88.5,73.5 C 88.8333,76.5 90.5,78.1667 93.5,78.5C 93.5,79.1667 93.5,79.8333 93.5,80.5C 90.4234,79.6266 88.09,77.7932 86.5,75C 85.552,74.5172 84.552,74.3505 83.5,74.5C 83.6399,72.8762 82.9733,71.7096 81.5,71C 63.8365,70.5001 46.1698,70.3334 28.5,70.5C 29.1667,72.5 29.8333,74.5 30.5,76.5C 28.8333,75.5 27.5,74.1667 26.5,72.5C 26.5,71.5 26.5,70.5 26.5,69.5C 45.1696,69.3334 63.8363,69.5001 82.5,70C 84.2396,71.6945 86.2396,72.8611 88.5,73.5 Z"/></g>
<g><path style="opacity:1" fill="#f9833d" d="M 188.5,74.5 C 189.404,75.209 189.737,76.209 189.5,77.5C 190.833,77.5 192.167,77.5 193.5,77.5C 195.774,81.0496 197.774,84.7162 199.5,88.5C 202.285,87.9162 203.952,88.9162 204.5,91.5C 202.696,91.5759 200.696,91.2425 198.5,90.5C 198.502,88.1691 197.669,86.1691 196,84.5C 195.487,85.5266 194.987,86.5266 194.5,87.5C 193.226,86.8106 193.226,85.9772 194.5,85C 192.015,83.5126 189.848,81.6792 188,79.5C 186.274,81.0153 184.774,82.6819 183.5,84.5C 180.588,83.7962 178.088,82.4629 176,80.5C 172.065,82.8817 168.231,85.3817 164.5,88C 163.663,89.0113 163.33,90.1779 163.5,91.5C 161.5,91.5 159.5,91.5 157.5,91.5C 155.838,95.2073 157.171,97.2073 161.5,97.5C 162.598,98.397 162.598,99.2303 161.5,100C 163.929,100.451 164.096,101.285 162,102.5C 160.103,100.984 157.936,100.317 155.5,100.5C 153.551,98.2299 151.218,96.2299 148.5,94.5C 147.873,93.5832 147.539,92.5832 147.5,91.5C 151.138,92.2634 152.638,90.9301 152,87.5C 149.833,86.6667 148.333,85.1667 147.5,83C 149.882,79.8265 152.215,76.6599 154.5,73.5C 157.411,74.7441 160.244,76.0774 163,77.5C 164.059,77.3699 164.892,76.8699 165.5,76C 164.027,75.2904 163.36,74.1238 163.5,72.5C 166.879,72.112 170.212,71.4453 173.5,70.5C 175.626,66.5509 176.959,66.8842 177.5,71.5C 178.93,71.4208 180.264,71.7542 181.5,72.5C 182.192,71.9747 182.692,71.3081 183,70.5C 183.5,72.3333 184.667,73.5 186.5,74C 185.833,74.3333 185.167,74.6667 184.5,75C 186.464,78.5034 187.797,78.3368 188.5,74.5 Z"/></g>
<g><path style="opacity:1" fill="#e59475" d="M 121.5,69.5 C 122.873,69.3433 124.207,69.51 125.5,70C 126.032,72.4632 127.366,74.2965 129.5,75.5C 129.5,76.1667 129.5,76.8333 129.5,77.5C 126.5,75.1667 123.833,72.5 121.5,69.5 Z"/></g>
<g><path style="opacity:1" fill="#e2998d" d="M 88.5,73.5 C 90.1667,75.1667 91.8333,76.8333 93.5,78.5C 90.5,78.1667 88.8333,76.5 88.5,73.5 Z"/></g>
<g><path style="opacity:1" fill="#db8672" d="M 30.5,76.5 C 33.179,76.5246 34.5123,77.858 34.5,80.5C 32.8333,79.5 31.5,78.1667 30.5,76.5 Z"/></g>
<g><path style="opacity:1" fill="#e88858" d="M 129.5,75.5 C 131.941,76.5566 134.275,77.89 136.5,79.5C 136.67,83.8326 138.836,86.4993 143,87.5C 143.49,88.7932 143.657,90.1266 143.5,91.5C 138.5,87.1667 133.833,82.5 129.5,77.5C 129.5,76.8333 129.5,76.1667 129.5,75.5 Z"/></g>
<g><path style="opacity:1" fill="#f9883d" d="M 194.5,87.5 C 194.372,89.6547 194.872,91.6547 196,93.5C 196.333,93.1667 196.667,92.8333 197,92.5C 198.062,94.2078 199.229,94.8745 200.5,94.5C 199.653,95.8448 198.487,96.8448 197,97.5C 194.509,95.0606 191.676,93.0606 188.5,91.5C 186.078,93.7263 186.078,96.0596 188.5,98.5C 185.554,99.6548 182.554,99.8214 179.5,99C 178.128,97.7581 177.128,96.2581 176.5,94.5C 174.955,93.5481 173.288,93.2148 171.5,93.5C 171.5,95.1667 171.5,96.8333 171.5,98.5C 170.5,98.5 169.5,98.5 168.5,98.5C 168.5,99.5 168.5,100.5 168.5,101.5C 166.058,101.646 165.391,100.813 166.5,99C 165.551,98.3828 164.718,98.5494 164,99.5C 163.583,98.244 162.75,97.5774 161.5,97.5C 157.171,97.2073 155.838,95.2073 157.5,91.5C 159.5,91.5 161.5,91.5 163.5,91.5C 163.33,90.1779 163.663,89.0113 164.5,88C 168.231,85.3817 172.065,82.8817 176,80.5C 178.088,82.4629 180.588,83.7962 183.5,84.5C 184.774,82.6819 186.274,81.0153 188,79.5C 189.848,81.6792 192.015,83.5126 194.5,85C 193.226,85.9772 193.226,86.8106 194.5,87.5 Z"/></g>
<g><path style="opacity:1" fill="#dc8574" d="M 34.5,80.5 C 37.3556,81.414 39.8556,83.0807 42,85.5C 42.7914,86.745 43.2914,88.0783 43.5,89.5C 40.1667,86.8333 37.1667,83.8333 34.5,80.5 Z"/></g>
<g><path style="opacity:1" fill="#f75b42" d="M 93.5,80.5 C 94.6594,82.2503 96.326,83.2503 98.5,83.5C 98.8333,84.8333 99.1667,86.1667 99.5,87.5C 101.738,89.647 101.738,91.647 99.5,93.5C 98.0325,92.3047 96.5325,92.3047 95,93.5C 93.4192,91.153 92.0859,91.153 91,93.5C 89.0783,91.5505 86.9117,89.8838 84.5,88.5C 83.6143,89.325 83.281,90.325 83.5,91.5C 78.2672,89.4029 72.9339,89.4029 67.5,91.5C 69.9016,91.5221 72.5682,91.6888 75.5,92C 71.2363,93.8734 66.903,94.3734 62.5,93.5C 62.2317,96.1194 62.565,98.6194 63.5,101C 62.5291,102.481 61.1958,103.315 59.5,103.5C 58.1979,101.178 56.1979,99.8449 53.5,99.5C 53.8333,96.5 52.5,95.1667 49.5,95.5C 49.2714,93.567 48.4381,91.9003 47,90.5C 45.9887,89.6634 44.8221,89.33 43.5,89.5C 43.2914,88.0783 42.7914,86.745 42,85.5C 39.8556,83.0807 37.3556,81.414 34.5,80.5C 34.5123,77.858 33.179,76.5246 30.5,76.5C 29.8333,74.5 29.1667,72.5 28.5,70.5C 46.1698,70.3334 63.8365,70.5001 81.5,71C 82.9733,71.7096 83.6399,72.8762 83.5,74.5C 84.552,74.3505 85.552,74.5172 86.5,75C 88.09,77.7932 90.4234,79.6266 93.5,80.5 Z"/></g>
<g><path style="opacity:1" fill="#eaafa9" d="M 93.5,78.5 C 95.5,79.8333 97.1667,81.5 98.5,83.5C 96.326,83.2503 94.6594,82.2503 93.5,80.5C 93.5,79.8333 93.5,79.1667 93.5,78.5 Z"/></g>
<g><path style="opacity:1" fill="#e19a8f" d="M 98.5,83.5 C 100.167,84.5 101.5,85.8333 102.5,87.5C 101.5,87.5 100.5,87.5 99.5,87.5C 99.1667,86.1667 98.8333,84.8333 98.5,83.5 Z"/></g>
<g><path style="opacity:1" fill="#e29664" d="M 193.5,77.5 C 199.833,83.1667 205.833,89.1667 211.5,95.5C 211.557,96.609 211.89,97.609 212.5,98.5C 211.833,98.5 211.167,98.5 210.5,98.5C 209.946,94.9452 207.946,92.6118 204.5,91.5C 203.952,88.9162 202.285,87.9162 199.5,88.5C 197.774,84.7162 195.774,81.0496 193.5,77.5 Z"/></g>
<g><path style="opacity:1" fill="#f86343" d="M 99.5,87.5 C 100.5,87.5 101.5,87.5 102.5,87.5C 104.194,88.5274 105.527,89.8608 106.5,91.5C 106.525,94.179 107.858,95.5123 110.5,95.5C 110.833,96.8333 111.167,98.1667 111.5,99.5C 110.595,101.911 109.095,103.911 107,105.5C 106.586,105.043 106.086,104.709 105.5,104.5C 101.228,108.596 97.5609,113.096 94.5,118C 90.5049,120.609 86.8382,123.442 83.5,126.5C 82.8333,126.167 82.1667,125.833 81.5,125.5C 77.4325,120.1 72.4325,115.766 66.5,112.5C 66.6107,111.883 66.944,111.383 67.5,111C 65.1569,108.456 62.4902,106.622 59.5,105.5C 59.5,104.833 59.5,104.167 59.5,103.5C 61.1958,103.315 62.5291,102.481 63.5,101C 62.565,98.6194 62.2317,96.1194 62.5,93.5C 66.903,94.3734 71.2363,93.8734 75.5,92C 72.5682,91.6888 69.9016,91.5221 67.5,91.5C 72.9339,89.4029 78.2672,89.4029 83.5,91.5C 83.281,90.325 83.6143,89.325 84.5,88.5C 86.9117,89.8838 89.0783,91.5505 91,93.5C 92.0859,91.153 93.4192,91.153 95,93.5C 96.5325,92.3047 98.0325,92.3047 99.5,93.5C 101.738,91.647 101.738,89.647 99.5,87.5 Z"/></g>
<g><path style="opacity:1" fill="#da8576" d="M 43.5,89.5 C 44.8221,89.33 45.9887,89.6634 47,90.5C 48.4381,91.9003 49.2714,93.567 49.5,95.5C 47.1667,93.8333 45.1667,91.8333 43.5,89.5 Z"/></g>
<g><path style="opacity:1" fill="#f88837" d="M 204.5,91.5 C 207.946,92.6118 209.946,94.9452 210.5,98.5C 205.094,106.078 198.094,111.578 189.5,115C 188.998,118.02 187.332,120.02 184.5,121C 185.311,123.291 184.477,125.125 182,126.5C 181.617,125.944 181.117,125.611 180.5,125.5C 175.766,121.449 171.433,116.949 167.5,112C 166.207,111.51 164.873,111.343 163.5,111.5C 161.543,107.225 158.876,103.559 155.5,100.5C 157.936,100.317 160.103,100.984 162,102.5C 164.096,101.285 163.929,100.451 161.5,100C 162.598,99.2303 162.598,98.397 161.5,97.5C 162.75,97.5774 163.583,98.244 164,99.5C 164.718,98.5494 165.551,98.3828 166.5,99C 165.391,100.813 166.058,101.646 168.5,101.5C 168.5,100.5 168.5,99.5 168.5,98.5C 169.5,98.5 170.5,98.5 171.5,98.5C 171.5,96.8333 171.5,95.1667 171.5,93.5C 173.288,93.2148 174.955,93.5481 176.5,94.5C 177.128,96.2581 178.128,97.7581 179.5,99C 182.554,99.8214 185.554,99.6548 188.5,98.5C 186.078,96.0596 186.078,93.7263 188.5,91.5C 191.676,93.0606 194.509,95.0606 197,97.5C 198.487,96.8448 199.653,95.8448 200.5,94.5C 199.229,94.8745 198.062,94.2078 197,92.5C 196.667,92.8333 196.333,93.1667 196,93.5C 194.872,91.6547 194.372,89.6547 194.5,87.5C 194.987,86.5266 195.487,85.5266 196,84.5C 197.669,86.1691 198.502,88.1691 198.5,90.5C 200.696,91.2425 202.696,91.5759 204.5,91.5 Z"/></g>
<g><path style="opacity:1" fill="#e69b8f" d="M 106.5,91.5 C 108.167,92.5 109.5,93.8333 110.5,95.5C 107.858,95.5123 106.525,94.179 106.5,91.5 Z"/></g>
<g><path style="opacity:1" fill="#de8277" d="M 49.5,95.5 C 52.5,95.1667 53.8333,96.5 53.5,99.5C 51.8333,98.5 50.5,97.1667 49.5,95.5 Z"/></g>
<g><path style="opacity:1" fill="#e4a08b" d="M 110.5,95.5 C 112.167,96.5 113.5,97.8333 114.5,99.5C 113.5,99.5 112.5,99.5 111.5,99.5C 111.167,98.1667 110.833,96.8333 110.5,95.5 Z"/></g>
<g><path style="opacity:1" fill="#e3ac66" d="M 211.5,95.5 C 216.575,99.9085 221.242,104.575 225.5,109.5C 220.109,106.987 215.776,103.32 212.5,98.5C 211.89,97.609 211.557,96.609 211.5,95.5 Z"/></g>
<g><path style="opacity:1" fill="#da8c77" d="M 53.5,99.5 C 56.1979,99.8449 58.1979,101.178 59.5,103.5C 59.5,104.167 59.5,104.833 59.5,105.5C 57.1667,103.833 55.1667,101.833 53.5,99.5 Z"/></g>
<g><path style="opacity:1" fill="#df8d75" d="M 59.5,105.5 C 62.4902,106.622 65.1569,108.456 67.5,111C 66.944,111.383 66.6107,111.883 66.5,112.5C 63.8333,110.5 61.5,108.167 59.5,105.5 Z"/></g>
<g><path style="opacity:1" fill="#e49865" d="M 143.5,91.5 C 144.833,91.5 146.167,91.5 147.5,91.5C 147.539,92.5832 147.873,93.5832 148.5,94.5C 151.218,96.2299 153.551,98.2299 155.5,100.5C 158.876,103.559 161.543,107.225 163.5,111.5C 156.5,105.167 149.833,98.5 143.5,91.5 Z"/></g>
<g><path style="opacity:1" fill="#f97c3e" d="M 111.5,99.5 C 112.5,99.5 113.5,99.5 114.5,99.5C 115.167,101.5 115.833,103.5 116.5,105.5C 116.5,106.5 116.5,107.5 116.5,108.5C 117.5,108.5 118.5,108.5 119.5,108.5C 119.67,109.822 119.337,110.989 118.5,112C 120.762,112.701 121.762,113.868 121.5,115.5C 120.5,114.167 119.5,114.167 118.5,115.5C 118.167,114.833 117.833,114.167 117.5,113.5C 114.757,114.101 113.424,112.767 113.5,109.5C 112.5,109.5 111.5,109.5 110.5,109.5C 110.393,111.903 111.393,113.736 113.5,115C 112.234,115.309 111.067,115.809 110,116.5C 109.275,114.842 108.108,114.342 106.5,115C 107.711,115.893 107.711,116.726 106.5,117.5C 102.025,115.403 98.6917,116.403 96.5,120.5C 95.3493,121.731 94.1827,121.731 93,120.5C 90.544,123.788 87.3774,126.121 83.5,127.5C 83.5,127.167 83.5,126.833 83.5,126.5C 86.8382,123.442 90.5049,120.609 94.5,118C 97.5609,113.096 101.228,108.596 105.5,104.5C 106.086,104.709 106.586,105.043 107,105.5C 109.095,103.911 110.595,101.911 111.5,99.5 Z"/></g>
<g><path style="opacity:1" fill="#f8823d" d="M 116.5,105.5 C 120.39,107.773 123.724,110.773 126.5,114.5C 128.289,116.033 130.289,117.033 132.5,117.5C 132.683,119.988 133.683,121.988 135.5,123.5C 133.883,122.962 132.216,122.629 130.5,122.5C 130.662,124.527 130.495,126.527 130,128.5C 127.287,126.762 125.287,124.428 124,121.5C 123.5,122.5 123,123.5 122.5,124.5C 115.565,126.522 108.565,128.189 101.5,129.5C 101.709,130.086 102.043,130.586 102.5,131C 100.899,131.273 99.3988,131.773 98,132.5C 97.5,131.333 96.6667,130.5 95.5,130C 96.1667,129.667 96.8333,129.333 97.5,129C 96.1667,128.667 94.8333,128.333 93.5,128C 95.158,127.275 95.658,126.108 95,124.5C 92.9431,125.978 91.6098,127.978 91,130.5C 90.0922,128.561 88.5922,127.561 86.5,127.5C 86.8333,130.5 85.5,131.833 82.5,131.5C 82.4326,130.041 82.7659,128.708 83.5,127.5C 87.3774,126.121 90.544,123.788 93,120.5C 94.1827,121.731 95.3493,121.731 96.5,120.5C 98.6917,116.403 102.025,115.403 106.5,117.5C 107.711,116.726 107.711,115.893 106.5,115C 108.108,114.342 109.275,114.842 110,116.5C 111.067,115.809 112.234,115.309 113.5,115C 111.393,113.736 110.393,111.903 110.5,109.5C 111.5,109.5 112.5,109.5 113.5,109.5C 113.424,112.767 114.757,114.101 117.5,113.5C 117.833,114.167 118.167,114.833 118.5,115.5C 119.5,114.167 120.5,114.167 121.5,115.5C 121.762,113.868 120.762,112.701 118.5,112C 119.337,110.989 119.67,109.822 119.5,108.5C 118.5,108.5 117.5,108.5 116.5,108.5C 116.5,107.5 116.5,106.5 116.5,105.5 Z"/></g>
<g><path style="opacity:1" fill="#f9a02f" d="M 210.5,98.5 C 211.167,98.5 211.833,98.5 212.5,98.5C 215.776,103.32 220.109,106.987 225.5,109.5C 225.833,109.5 226.167,109.5 226.5,109.5C 226.343,110.873 226.51,112.207 227,113.5C 229.478,116.832 231.645,120.165 233.5,123.5C 231.989,125.441 229.989,125.941 227.5,125C 226.195,119.412 223.862,119.246 220.5,124.5C 215.427,125.715 210.427,125.382 205.5,123.5C 203.547,124.156 201.547,124.489 199.5,124.5C 199.762,123.022 199.429,121.689 198.5,120.5C 197.28,121.711 196.113,121.711 195,120.5C 194.215,122.286 193.049,123.786 191.5,125C 193.991,125.626 193.991,126.459 191.5,127.5C 190.754,128.736 190.421,130.07 190.5,131.5C 189.5,131.5 188.5,131.5 187.5,131.5C 187.649,130.448 187.483,129.448 187,128.5C 186.667,128.833 186.333,129.167 186,129.5C 184.324,133.355 183.157,137.521 182.5,142C 180.633,142.711 179.133,142.211 178,140.5C 176.989,141.337 175.822,141.67 174.5,141.5C 174.831,139.678 175.498,138.011 176.5,136.5C 177.957,134.372 178.957,132.038 179.5,129.5C 180.434,128.432 180.768,127.099 180.5,125.5C 181.117,125.611 181.617,125.944 182,126.5C 184.477,125.125 185.311,123.291 184.5,121C 187.332,120.02 188.998,118.02 189.5,115C 198.094,111.578 205.094,106.078 210.5,98.5 Z"/></g>
<g><path style="opacity:1" fill="#e4907b" d="M 66.5,112.5 C 72.4325,115.766 77.4325,120.1 81.5,125.5C 81.5,126.167 81.5,126.833 81.5,127.5C 76.1667,122.833 71.1667,117.833 66.5,112.5 Z"/></g>
<g><path style="opacity:1" fill="#e89e63" d="M 163.5,111.5 C 164.873,111.343 166.207,111.51 167.5,112C 171.433,116.949 175.766,121.449 180.5,125.5C 180.768,127.099 180.434,128.432 179.5,129.5C 179.167,129.5 178.833,129.5 178.5,129.5C 178.649,128.448 178.483,127.448 178,126.5C 172.963,121.631 168.13,116.631 163.5,111.5 Z"/></g>
<g><path style="opacity:1" fill="#e2a57f" d="M 114.5,99.5 C 120.833,105.167 126.833,111.167 132.5,117.5C 130.289,117.033 128.289,116.033 126.5,114.5C 123.724,110.773 120.39,107.773 116.5,105.5C 115.833,103.5 115.167,101.5 114.5,99.5 Z"/></g>
<g><path style="opacity:1" fill="#dea37b" d="M 132.5,117.5 C 136.344,120.511 139.678,124.011 142.5,128C 140.346,131.321 137.679,134.154 134.5,136.5C 134.5,135.167 134.5,133.833 134.5,132.5C 140.688,129.921 141.022,126.921 135.5,123.5C 133.683,121.988 132.683,119.988 132.5,117.5 Z"/></g>
<g><path style="opacity:1" fill="#f9a82c" d="M 233.5,123.5 C 234.568,122.566 235.901,122.232 237.5,122.5C 237.285,124.179 237.952,125.179 239.5,125.5C 240.376,125.369 241.043,125.702 241.5,126.5C 240.691,128.071 240.357,129.738 240.5,131.5C 239.167,131.5 237.833,131.5 236.5,131.5C 235.783,134.323 234.783,136.99 233.5,139.5C 230.911,139.461 228.911,140.461 227.5,142.5C 227.247,140.173 227.914,138.173 229.5,136.5C 229,135.5 228.5,134.5 228,133.5C 225.8,134.522 223.8,135.855 222,137.5C 220.187,136.391 219.354,137.058 219.5,139.5C 213.6,140.544 207.933,140.544 202.5,139.5C 200.167,141.833 197.833,144.167 195.5,146.5C 188.864,147.657 182.531,149.657 176.5,152.5C 172.389,150.836 168.389,149.836 164.5,149.5C 167.055,143.941 171.055,139.607 176.5,136.5C 175.498,138.011 174.831,139.678 174.5,141.5C 175.822,141.67 176.989,141.337 178,140.5C 179.133,142.211 180.633,142.711 182.5,142C 183.157,137.521 184.324,133.355 186,129.5C 186.333,129.167 186.667,128.833 187,128.5C 187.483,129.448 187.649,130.448 187.5,131.5C 188.5,131.5 189.5,131.5 190.5,131.5C 190.421,130.07 190.754,128.736 191.5,127.5C 193.991,126.459 193.991,125.626 191.5,125C 193.049,123.786 194.215,122.286 195,120.5C 196.113,121.711 197.28,121.711 198.5,120.5C 199.429,121.689 199.762,123.022 199.5,124.5C 201.547,124.489 203.547,124.156 205.5,123.5C 210.427,125.382 215.427,125.715 220.5,124.5C 223.862,119.246 226.195,119.412 227.5,125C 229.989,125.941 231.989,125.441 233.5,123.5 Z"/></g>
<g><path style="opacity:1" fill="#eba848" d="M 226.5,109.5 C 230.5,114.167 234.833,118.5 239.5,122.5C 239.5,123.5 239.5,124.5 239.5,125.5C 237.952,125.179 237.285,124.179 237.5,122.5C 235.901,122.232 234.568,122.566 233.5,123.5C 231.645,120.165 229.478,116.832 227,113.5C 226.51,112.207 226.343,110.873 226.5,109.5 Z"/></g>
<g><path style="opacity:1" fill="#f98839" d="M 135.5,123.5 C 141.022,126.921 140.688,129.921 134.5,132.5C 132.621,132.393 132.288,132.893 133.5,134C 131.527,134.495 129.527,134.662 127.5,134.5C 127.502,136.831 126.669,138.831 125,140.5C 124.667,140.167 124.333,139.833 124,139.5C 121.939,142.128 119.439,142.795 116.5,141.5C 115.522,141.977 114.689,142.643 114,143.5C 112.37,140.659 109.87,139.326 106.5,139.5C 102.623,140.409 98.956,141.742 95.5,143.5C 95.67,144.822 95.3366,145.989 94.5,147C 95.1667,147.333 95.8333,147.667 96.5,148C 93.461,150.65 90.1277,150.817 86.5,148.5C 82.6717,151.8 78.6717,152.134 74.5,149.5C 74.3233,152.078 73.1567,152.078 71,149.5C 70.4112,152.897 69.0779,155.897 67,158.5C 64.631,158.273 62.131,158.107 59.5,158C 58.6634,156.989 58.33,155.822 58.5,154.5C 61.6604,151.534 64.827,148.534 68,145.5C 68.4101,144.099 68.9101,142.766 69.5,141.5C 73.6443,137.927 77.9777,134.594 82.5,131.5C 85.5,131.833 86.8333,130.5 86.5,127.5C 88.5922,127.561 90.0922,128.561 91,130.5C 91.6098,127.978 92.9431,125.978 95,124.5C 95.658,126.108 95.158,127.275 93.5,128C 94.8333,128.333 96.1667,128.667 97.5,129C 96.8333,129.333 96.1667,129.667 95.5,130C 96.6667,130.5 97.5,131.333 98,132.5C 99.3988,131.773 100.899,131.273 102.5,131C 102.043,130.586 101.709,130.086 101.5,129.5C 108.565,128.189 115.565,126.522 122.5,124.5C 123,123.5 123.5,122.5 124,121.5C 125.287,124.428 127.287,126.762 130,128.5C 130.495,126.527 130.662,124.527 130.5,122.5C 132.216,122.629 133.883,122.962 135.5,123.5 Z"/></g>
<g><path style="opacity:1" fill="#e7c387" d="M 239.5,122.5 C 241.867,123.871 243.533,125.871 244.5,128.5C 241.146,132.521 237.479,136.188 233.5,139.5C 234.783,136.99 235.783,134.323 236.5,131.5C 237.833,131.5 239.167,131.5 240.5,131.5C 240.357,129.738 240.691,128.071 241.5,126.5C 241.043,125.702 240.376,125.369 239.5,125.5C 239.5,124.5 239.5,123.5 239.5,122.5 Z"/></g>
<g><path style="opacity:1" fill="#e1b772" d="M 178.5,129.5 C 173.263,136.243 167.429,142.577 161,148.5C 160.667,149.5 160.333,150.5 160,151.5C 156.665,153.355 153.498,155.355 150.5,157.5C 159.5,147.833 168.833,138.5 178.5,129.5 Z"/></g>
<g><path style="opacity:1" fill="#f9af2b" d="M 227.5,142.5 C 225.721,143.67 224.721,145.336 224.5,147.5C 221.99,148.157 219.823,149.491 218,151.5C 217.228,151.355 216.561,151.022 216,150.5C 215.506,152.134 215.34,153.801 215.5,155.5C 214.5,155.5 213.5,155.5 212.5,155.5C 212.567,156.959 212.234,158.292 211.5,159.5C 210.167,159.5 208.833,159.5 207.5,159.5C 207.5,160.5 207.5,161.5 207.5,162.5C 204.509,162.33 202.509,163.663 201.5,166.5C 200.293,164.73 198.626,163.73 196.5,163.5C 194.61,164.612 192.61,165.446 190.5,166C 188.668,170.589 187.334,170.422 186.5,165.5C 187.675,165.719 188.675,165.386 189.5,164.5C 187.235,163.353 184.902,163.186 182.5,164C 183.337,165.011 183.67,166.178 183.5,167.5C 179.563,167.207 175.73,167.54 172,168.5C 171.549,166.071 170.715,165.904 169.5,168C 172.388,170.296 171.888,171.462 168,171.5C 166.833,171.333 165.667,171.167 164.5,171C 165.357,170.311 166.023,169.478 166.5,168.5C 164.187,167.727 161.854,167.06 159.5,166.5C 157.65,167.242 156.984,168.242 157.5,169.5C 154.284,166.624 152.784,167.29 153,171.5C 153.914,170.346 154.747,170.513 155.5,172C 154.552,172.483 153.552,172.649 152.5,172.5C 152.024,177.073 150.358,177.573 147.5,174C 147.905,173.055 148.572,172.388 149.5,172C 148.027,171.29 147.36,170.124 147.5,168.5C 145.315,168.704 143.315,169.37 141.5,170.5C 143.252,168.754 144.585,166.754 145.5,164.5C 151.814,159.524 158.148,154.524 164.5,149.5C 168.389,149.836 172.389,150.836 176.5,152.5C 182.531,149.657 188.864,147.657 195.5,146.5C 197.833,144.167 200.167,141.833 202.5,139.5C 207.933,140.544 213.6,140.544 219.5,139.5C 219.354,137.058 220.187,136.391 222,137.5C 223.8,135.855 225.8,134.522 228,133.5C 228.5,134.5 229,135.5 229.5,136.5C 227.914,138.173 227.247,140.173 227.5,142.5 Z"/></g>
<g><path style="opacity:1" fill="#e0a075" d="M 81.5,125.5 C 82.1667,125.833 82.8333,126.167 83.5,126.5C 83.5,126.833 83.5,127.167 83.5,127.5C 82.7659,128.708 82.4326,130.041 82.5,131.5C 77.9777,134.594 73.6443,137.927 69.5,141.5C 73.5293,136.808 77.5293,132.142 81.5,127.5C 81.5,126.833 81.5,126.167 81.5,125.5 Z"/></g>
<g><path style="opacity:1" fill="#f88f37" d="M 134.5,132.5 C 134.5,133.833 134.5,135.167 134.5,136.5C 133.448,136.351 132.448,136.517 131.5,137C 128.098,140.197 125.431,143.697 123.5,147.5C 122.448,147.351 121.448,147.517 120.5,148C 117.657,151.01 114.657,153.843 111.5,156.5C 109.284,156.725 107.617,155.892 106.5,154C 100.365,153.142 95.0316,154.809 90.5,159C 87.8333,159.333 85.1667,159.667 82.5,160C 79.013,164.419 74.6796,165.919 69.5,164.5C 69.5,165.5 69.5,166.5 69.5,167.5C 66.1768,168.714 62.8435,169.714 59.5,170.5C 58.5768,171.303 57.5768,171.47 56.5,171C 57.4506,170.282 57.6172,169.449 57,168.5C 53.423,171.765 49.2564,173.265 44.5,173C 45.5786,172.044 46.7453,171.211 48,170.5C 50.592,164.761 53.7587,159.427 57.5,154.5C 57.8333,154.5 58.1667,154.5 58.5,154.5C 58.33,155.822 58.6634,156.989 59.5,158C 62.131,158.107 64.631,158.273 67,158.5C 69.0779,155.897 70.4112,152.897 71,149.5C 73.1567,152.078 74.3233,152.078 74.5,149.5C 78.6717,152.134 82.6717,151.8 86.5,148.5C 90.1277,150.817 93.461,150.65 96.5,148C 95.8333,147.667 95.1667,147.333 94.5,147C 95.3366,145.989 95.67,144.822 95.5,143.5C 98.956,141.742 102.623,140.409 106.5,139.5C 109.87,139.326 112.37,140.659 114,143.5C 114.689,142.643 115.522,141.977 116.5,141.5C 119.439,142.795 121.939,142.128 124,139.5C 124.333,139.833 124.667,140.167 125,140.5C 126.669,138.831 127.502,136.831 127.5,134.5C 129.527,134.662 131.527,134.495 133.5,134C 132.288,132.893 132.621,132.393 134.5,132.5 Z"/></g>
<g><path style="opacity:1" fill="#e2a26a" d="M 134.5,136.5 C 131.167,140.5 127.5,144.167 123.5,147.5C 125.431,143.697 128.098,140.197 131.5,137C 132.448,136.517 133.448,136.351 134.5,136.5 Z"/></g>
<g><path style="opacity:1" fill="#e6aa75" d="M 69.5,141.5 C 68.9101,142.766 68.4101,144.099 68,145.5C 64.827,148.534 61.6604,151.534 58.5,154.5C 58.1667,154.5 57.8333,154.5 57.5,154.5C 55.7541,156.252 53.7541,157.585 51.5,158.5C 56.89,152.108 62.89,146.441 69.5,141.5 Z"/></g>
<g><path style="opacity:1" fill="#efc681" d="M 233.5,139.5 C 225.833,147.833 217.833,155.833 209.5,163.5C 209.527,161.801 210.194,160.467 211.5,159.5C 212.234,158.292 212.567,156.959 212.5,155.5C 213.5,155.5 214.5,155.5 215.5,155.5C 215.34,153.801 215.506,152.134 216,150.5C 216.561,151.022 217.228,151.355 218,151.5C 219.823,149.491 221.99,148.157 224.5,147.5C 224.721,145.336 225.721,143.67 227.5,142.5C 228.911,140.461 230.911,139.461 233.5,139.5 Z"/></g>
<g><path style="opacity:1" fill="#f89639" d="M 111.5,156.5 C 111.213,158.121 110.213,159.121 108.5,159.5C 107.571,160.689 107.238,162.022 107.5,163.5C 106.167,163.5 104.833,163.5 103.5,163.5C 103.5,165.167 103.5,166.833 103.5,168.5C 103.167,168.5 102.833,168.5 102.5,168.5C 99.8333,169.167 98.1667,170.833 97.5,173.5C 95.5,174.167 93.5,174.833 91.5,175.5C 91.7373,176.791 91.404,177.791 90.5,178.5C 90.0248,175.115 91.3582,172.782 94.5,171.5C 93.6906,169.929 93.3573,168.262 93.5,166.5C 89.7741,166.813 85.7741,167.313 81.5,168C 80.5,169 79.5,170 78.5,171C 79.3859,172.217 80.3859,173.551 81.5,175C 77.8838,179.676 73.2172,181.676 67.5,181C 69.5,180.667 71.5,180.333 73.5,180C 69.9106,179.793 66.4106,179.293 63,178.5C 61.7553,178.461 60.4219,178.795 59,179.5C 58.5,179.167 58,178.833 57.5,178.5C 58.8532,177.476 59.5198,176.143 59.5,174.5C 72.7302,173.268 72.7302,171.934 59.5,170.5C 62.8435,169.714 66.1768,168.714 69.5,167.5C 69.5,166.5 69.5,165.5 69.5,164.5C 74.6796,165.919 79.013,164.419 82.5,160C 85.1667,159.667 87.8333,159.333 90.5,159C 95.0316,154.809 100.365,153.142 106.5,154C 107.617,155.892 109.284,156.725 111.5,156.5 Z"/></g>
<g><path style="opacity:1" fill="#dfa468" d="M 123.5,147.5 C 118.5,153.167 113.167,158.5 107.5,163.5C 107.238,162.022 107.571,160.689 108.5,159.5C 110.213,159.121 111.213,158.121 111.5,156.5C 114.657,153.843 117.657,151.01 120.5,148C 121.448,147.517 122.448,147.351 123.5,147.5 Z"/></g>
<g><path style="opacity:1" fill="#eaaa3e" d="M 178.5,129.5 C 178.833,129.5 179.167,129.5 179.5,129.5C 178.957,132.038 177.957,134.372 176.5,136.5C 171.055,139.607 167.055,143.941 164.5,149.5C 158.148,154.524 151.814,159.524 145.5,164.5C 147.58,162.427 149.246,160.093 150.5,157.5C 153.498,155.355 156.665,153.355 160,151.5C 160.333,150.5 160.667,149.5 161,148.5C 167.429,142.577 173.263,136.243 178.5,129.5 Z"/></g>
<g><path style="opacity:1" fill="#e1ac74" d="M 107.5,163.5 C 106.136,165.191 104.803,166.858 103.5,168.5C 103.5,166.833 103.5,165.167 103.5,163.5C 104.833,163.5 106.167,163.5 107.5,163.5 Z"/></g>
<g><path style="opacity:1" fill="#f9b42a" d="M 211.5,159.5 C 210.194,160.467 209.527,161.801 209.5,163.5C 205.622,164.233 203.289,166.566 202.5,170.5C 199.398,172.596 196.064,174.262 192.5,175.5C 191.175,174.047 190.342,174.381 190,176.5C 188.092,173.668 187.259,174.001 187.5,177.5C 182.232,177.489 176.899,177.822 171.5,178.5C 170.833,179.167 170.167,179.833 169.5,180.5C 170.773,183.271 169.773,184.938 166.5,185.5C 163.096,184.1 160.096,184.766 157.5,187.5C 150.744,185.54 144.078,184.873 137.5,185.5C 136.437,182.91 134.771,180.743 132.5,179C 135.343,175.99 138.343,173.157 141.5,170.5C 143.315,169.37 145.315,168.704 147.5,168.5C 147.36,170.124 148.027,171.29 149.5,172C 148.572,172.388 147.905,173.055 147.5,174C 150.358,177.573 152.024,177.073 152.5,172.5C 153.552,172.649 154.552,172.483 155.5,172C 154.747,170.513 153.914,170.346 153,171.5C 152.784,167.29 154.284,166.624 157.5,169.5C 156.984,168.242 157.65,167.242 159.5,166.5C 161.854,167.06 164.187,167.727 166.5,168.5C 166.023,169.478 165.357,170.311 164.5,171C 165.667,171.167 166.833,171.333 168,171.5C 171.888,171.462 172.388,170.296 169.5,168C 170.715,165.904 171.549,166.071 172,168.5C 175.73,167.54 179.563,167.207 183.5,167.5C 183.67,166.178 183.337,165.011 182.5,164C 184.902,163.186 187.235,163.353 189.5,164.5C 188.675,165.386 187.675,165.719 186.5,165.5C 187.334,170.422 188.668,170.589 190.5,166C 192.61,165.446 194.61,164.612 196.5,163.5C 198.626,163.73 200.293,164.73 201.5,166.5C 202.509,163.663 204.509,162.33 207.5,162.5C 207.5,161.5 207.5,160.5 207.5,159.5C 208.833,159.5 210.167,159.5 211.5,159.5 Z"/></g>
<g><path style="opacity:1" fill="#eed39d" d="M 209.5,163.5 C 207.5,166.167 205.167,168.5 202.5,170.5C 203.289,166.566 205.622,164.233 209.5,163.5 Z"/></g>
<g><path style="opacity:1" fill="#f89533" d="M 57.5,154.5 C 53.7587,159.427 50.592,164.761 48,170.5C 46.7453,171.211 45.5786,172.044 44.5,173C 49.2564,173.265 53.423,171.765 57,168.5C 57.6172,169.449 57.4506,170.282 56.5,171C 57.5768,171.47 58.5768,171.303 59.5,170.5C 72.7302,171.934 72.7302,173.268 59.5,174.5C 59.5198,176.143 58.8532,177.476 57.5,178.5C 58,178.833 58.5,179.167 59,179.5C 60.4219,178.795 61.7553,178.461 63,178.5C 66.4106,179.293 69.9106,179.793 73.5,180C 71.5,180.333 69.5,180.667 67.5,181C 73.2172,181.676 77.8838,179.676 81.5,175C 80.3859,173.551 79.3859,172.217 78.5,171C 79.5,170 80.5,169 81.5,168C 85.7741,167.313 89.7741,166.813 93.5,166.5C 93.3573,168.262 93.6906,169.929 94.5,171.5C 91.3582,172.782 90.0248,175.115 90.5,178.5C 89.8333,178.5 89.1667,178.5 88.5,178.5C 86.8679,179.446 85.2012,180.446 83.5,181.5C 82.6143,182.325 82.281,183.325 82.5,184.5C 65.5347,185.458 48.5347,185.791 31.5,185.5C 31.5,184.5 31.5,183.5 31.5,182.5C 32.6298,180.685 33.2964,178.685 33.5,176.5C 37.6061,173.571 41.6061,170.404 45.5,167C 48.564,164.793 50.564,161.959 51.5,158.5C 53.7541,157.585 55.7541,156.252 57.5,154.5 Z"/></g>
<g><path style="opacity:1" fill="#dfbf71" d="M 150.5,157.5 C 149.246,160.093 147.58,162.427 145.5,164.5C 141.773,168.233 137.773,171.566 133.5,174.5C 138.833,168.5 144.5,162.833 150.5,157.5 Z"/></g>
<g><path style="opacity:1" fill="#e3b87e" d="M 51.5,158.5 C 50.564,161.959 48.564,164.793 45.5,167C 41.6061,170.404 37.6061,173.571 33.5,176.5C 39.1667,170.167 45.1667,164.167 51.5,158.5 Z"/></g>
<g><path style="opacity:1" fill="#dead76" d="M 102.5,168.5 C 101.167,170.5 99.5,172.167 97.5,173.5C 98.1667,170.833 99.8333,169.167 102.5,168.5 Z"/></g>
<g><path style="opacity:1" fill="#f9ba26" d="M 192.5,175.5 C 192.5,176.833 192.5,178.167 192.5,179.5C 189.49,180.908 186.49,182.241 183.5,183.5C 183.5,184.5 183.5,185.5 183.5,186.5C 181.983,186.511 180.816,187.177 180,188.5C 179.282,187.549 178.449,187.383 177.5,188C 173.869,190.005 171.202,192.338 169.5,195C 166.905,195.226 164.405,195.726 162,196.5C 161.667,196.167 161.333,195.833 161,195.5C 160.125,198.215 158.292,199.548 155.5,199.5C 155.5,201.5 155.5,203.5 155.5,205.5C 152.102,205.82 148.768,205.487 145.5,204.5C 144.012,202.423 142.012,201.423 139.5,201.5C 139.719,202.675 139.386,203.675 138.5,204.5C 136.253,203.626 133.92,203.292 131.5,203.5C 131.5,202.5 131.5,201.5 131.5,200.5C 136.833,200.5 142.167,200.5 147.5,200.5C 147.5,198.833 147.5,197.167 147.5,195.5C 145.143,195.663 142.81,195.497 140.5,195C 140.87,193.39 140.203,191.89 138.5,190.5C 137.904,193.053 136.404,194.72 134,195.5C 130.849,196.093 127.682,196.593 124.5,197C 123.953,197.925 123.287,198.758 122.5,199.5C 121.38,198.167 120.047,197.667 118.5,198C 117.167,199 117.167,200 118.5,201C 117.364,202.145 116.364,203.312 115.5,204.5C 113.597,204.204 111.93,203.537 110.5,202.5C 112.088,200.681 113.754,198.847 115.5,197C 117.134,196.506 118.801,196.34 120.5,196.5C 120.215,194.712 120.548,193.045 121.5,191.5C 122.167,191.833 122.833,192.167 123.5,192.5C 124.424,190.61 125.757,189.11 127.5,188C 127.167,187.667 126.833,187.333 126.5,187C 127.448,186.517 128.448,186.351 129.5,186.5C 129.384,183.09 131.05,181.756 134.5,182.5C 134.643,184.262 134.309,185.929 133.5,187.5C 133.833,187.833 134.167,188.167 134.5,188.5C 135.288,187.23 136.288,186.23 137.5,185.5C 144.078,184.873 150.744,185.54 157.5,187.5C 160.096,184.766 163.096,184.1 166.5,185.5C 169.773,184.938 170.773,183.271 169.5,180.5C 170.167,179.833 170.833,179.167 171.5,178.5C 176.899,177.822 182.232,177.489 187.5,177.5C 187.259,174.001 188.092,173.668 190,176.5C 190.342,174.381 191.175,174.047 192.5,175.5 Z"/></g>
<g><path style="opacity:1" fill="#eecc85" d="M 202.5,170.5 C 196.777,177.225 190.444,183.225 183.5,188.5C 183.5,187.833 183.5,187.167 183.5,186.5C 183.5,185.5 183.5,184.5 183.5,183.5C 186.49,182.241 189.49,180.908 192.5,179.5C 192.5,178.167 192.5,176.833 192.5,175.5C 196.064,174.262 199.398,172.596 202.5,170.5 Z"/></g>
<g><path style="opacity:1" fill="#d99c57" d="M 97.5,173.5 C 93.2148,178.452 88.5481,183.119 83.5,187.5C 64.5,187.5 45.5,187.5 26.5,187.5C 26.6287,185.784 26.962,184.117 27.5,182.5C 29.1667,180.167 31.1667,178.167 33.5,176.5C 33.2964,178.685 32.6298,180.685 31.5,182.5C 29.8958,183.287 29.2291,184.62 29.5,186.5C 47.1698,186.667 64.8365,186.5 82.5,186C 84.8213,183.695 86.8213,181.195 88.5,178.5C 89.1667,178.5 89.8333,178.5 90.5,178.5C 91.404,177.791 91.7373,176.791 91.5,175.5C 93.5,174.833 95.5,174.167 97.5,173.5 Z"/></g>
<g><path style="opacity:1" fill="#ef9a41" d="M 88.5,178.5 C 86.8213,181.195 84.8213,183.695 82.5,186C 64.8365,186.5 47.1698,186.667 29.5,186.5C 29.2291,184.62 29.8958,183.287 31.5,182.5C 31.5,183.5 31.5,184.5 31.5,185.5C 48.5347,185.791 65.5347,185.458 82.5,184.5C 82.281,183.325 82.6143,182.325 83.5,181.5C 85.2012,180.446 86.8679,179.446 88.5,178.5 Z"/></g>
<g><path style="opacity:1" fill="#f0b635" d="M 145.5,164.5 C 144.585,166.754 143.252,168.754 141.5,170.5C 138.343,173.157 135.343,175.99 132.5,179C 134.771,180.743 136.437,182.91 137.5,185.5C 136.288,186.23 135.288,187.23 134.5,188.5C 134.167,188.167 133.833,187.833 133.5,187.5C 134.309,185.929 134.643,184.262 134.5,182.5C 131.05,181.756 129.384,183.09 129.5,186.5C 128.448,186.351 127.448,186.517 126.5,187C 126.833,187.333 127.167,187.667 127.5,188C 125.757,189.11 124.424,190.61 123.5,192.5C 122.833,192.167 122.167,191.833 121.5,191.5C 120.548,193.045 120.215,194.712 120.5,196.5C 118.801,196.34 117.134,196.506 115.5,197C 113.754,198.847 112.088,200.681 110.5,202.5C 107.833,204.167 105.167,205.833 102.5,207.5C 104.834,204.334 107.667,201.667 111,199.5C 112.394,197.612 113.56,195.612 114.5,193.5C 115.5,193.5 116.5,193.5 117.5,193.5C 120.051,189.275 123.384,185.608 127.5,182.5C 129.934,180.079 131.934,177.412 133.5,174.5C 137.773,171.566 141.773,168.233 145.5,164.5 Z"/></g>
<g><path style="opacity:1" fill="#f2daad" d="M 27.5,182.5 C 26.962,184.117 26.6287,185.784 26.5,187.5C 45.5,187.5 64.5,187.5 83.5,187.5C 63.6736,188.497 43.6736,188.83 23.5,188.5C 23.6225,185.708 24.9558,183.708 27.5,182.5 Z"/></g>
<g><path style="opacity:1" fill="#e3c476" d="M 133.5,174.5 C 131.934,177.412 129.934,180.079 127.5,182.5C 123.384,185.608 120.051,189.275 117.5,193.5C 116.5,193.5 115.5,193.5 114.5,193.5C 120.151,186.576 126.485,180.243 133.5,174.5 Z"/></g>
<g><path style="opacity:1" fill="#efd291" d="M 183.5,189.5 C 181.5,192.167 179.167,194.5 176.5,196.5C 176.5,195.167 176.5,193.833 176.5,192.5C 177.5,192.5 178.5,192.5 179.5,192.5C 179.5,191.5 179.5,190.5 179.5,189.5C 180.833,189.5 182.167,189.5 183.5,189.5 Z"/></g>
<g><path style="opacity:1" fill="#f6bf26" d="M 183.5,186.5 C 183.5,187.167 183.5,187.833 183.5,188.5C 183.5,188.833 183.5,189.167 183.5,189.5C 182.167,189.5 180.833,189.5 179.5,189.5C 179.5,190.5 179.5,191.5 179.5,192.5C 178.5,192.5 177.5,192.5 176.5,192.5C 176.5,193.833 176.5,195.167 176.5,196.5C 174.738,196.357 173.071,196.691 171.5,197.5C 169.07,201.295 165.903,204.295 162,206.5C 160.562,207.9 159.729,209.567 159.5,211.5C 157.5,212.167 156.167,213.5 155.5,215.5C 153.143,215.337 150.81,215.503 148.5,216C 147.95,217.845 146.95,219.345 145.5,220.5C 144.692,220.192 144.025,219.692 143.5,219C 145.439,218.092 146.439,216.592 146.5,214.5C 145.209,214.263 144.209,214.596 143.5,215.5C 141.589,215.574 140.422,216.574 140,218.5C 139.313,216.432 139.48,214.432 140.5,212.5C 139.502,209.972 138.669,209.972 138,212.5C 134,212.5 130,212.5 126,212.5C 124.266,211.751 122.433,211.251 120.5,211C 121.833,210.333 121.833,209.667 120.5,209C 118.221,208.527 116.221,207.527 114.5,206C 115.056,205.617 115.389,205.117 115.5,204.5C 116.364,203.312 117.364,202.145 118.5,201C 117.167,200 117.167,199 118.5,198C 120.047,197.667 121.38,198.167 122.5,199.5C 123.287,198.758 123.953,197.925 124.5,197C 127.682,196.593 130.849,196.093 134,195.5C 136.404,194.72 137.904,193.053 138.5,190.5C 140.203,191.89 140.87,193.39 140.5,195C 142.81,195.497 145.143,195.663 147.5,195.5C 147.5,197.167 147.5,198.833 147.5,200.5C 142.167,200.5 136.833,200.5 131.5,200.5C 131.5,201.5 131.5,202.5 131.5,203.5C 133.92,203.292 136.253,203.626 138.5,204.5C 139.386,203.675 139.719,202.675 139.5,201.5C 142.012,201.423 144.012,202.423 145.5,204.5C 148.768,205.487 152.102,205.82 155.5,205.5C 155.5,203.5 155.5,201.5 155.5,199.5C 158.292,199.548 160.125,198.215 161,195.5C 161.333,195.833 161.667,196.167 162,196.5C 164.405,195.726 166.905,195.226 169.5,195C 171.202,192.338 173.869,190.005 177.5,188C 178.449,187.383 179.282,187.549 180,188.5C 180.816,187.177 181.983,186.511 183.5,186.5 Z"/></g>
<g><path style="opacity:1" fill="#eedbaa" d="M 168.5,204.5 C 167.833,205.833 166.833,206.833 165.5,207.5C 165.5,206.5 165.5,205.5 165.5,204.5C 166.5,204.5 167.5,204.5 168.5,204.5 Z"/></g>
<g><path style="opacity:1" fill="#eacb68" d="M 176.5,196.5 C 174.167,199.5 171.5,202.167 168.5,204.5C 167.5,204.5 166.5,204.5 165.5,204.5C 165.5,205.5 165.5,206.5 165.5,207.5C 164.473,209.194 163.139,210.527 161.5,211.5C 160.833,211.5 160.167,211.5 159.5,211.5C 159.729,209.567 160.562,207.9 162,206.5C 165.903,204.295 169.07,201.295 171.5,197.5C 173.071,196.691 174.738,196.357 176.5,196.5 Z"/></g>
<g><path style="opacity:1" fill="#f8c024" d="M 110.5,202.5 C 111.93,203.537 113.597,204.204 115.5,204.5C 115.389,205.117 115.056,205.617 114.5,206C 116.221,207.527 118.221,208.527 120.5,209C 121.833,209.667 121.833,210.333 120.5,211C 122.433,211.251 124.266,211.751 126,212.5C 130,212.5 134,212.5 138,212.5C 138.669,209.972 139.502,209.972 140.5,212.5C 139.48,214.432 139.313,216.432 140,218.5C 140.422,216.574 141.589,215.574 143.5,215.5C 142.404,217.767 140.737,219.6 138.5,221C 136.157,220.876 133.823,220.376 131.5,219.5C 128.522,220.404 125.689,221.738 123,223.5C 119.667,219.959 115.5,218.626 110.5,219.5C 110.5,222.167 110.5,224.833 110.5,227.5C 105.195,228.776 96.5287,228.776 84.5,227.5C 86.227,224.465 88.227,221.799 90.5,219.5C 91.7035,217.366 93.5368,216.032 96,215.5C 96.6077,213.846 97.1077,212.179 97.5,210.5C 99.6636,210.279 101.33,209.279 102.5,207.5C 105.167,205.833 107.833,204.167 110.5,202.5 Z"/></g>
<g><path style="opacity:1" fill="#e7cb77" d="M 114.5,193.5 C 113.56,195.612 112.394,197.612 111,199.5C 107.667,201.667 104.834,204.334 102.5,207.5C 101.33,209.279 99.6636,210.279 97.5,210.5C 102.833,204.5 108.5,198.833 114.5,193.5 Z"/></g>
<g><path style="opacity:1" fill="#efd691" d="M 159.5,211.5 C 160.167,211.5 160.833,211.5 161.5,211.5C 159.167,214.5 156.5,217.167 153.5,219.5C 153.527,217.801 154.194,216.467 155.5,215.5C 156.167,213.5 157.5,212.167 159.5,211.5 Z"/></g>
<g><path style="opacity:1" fill="#e6cc72" d="M 97.5,210.5 C 97.1077,212.179 96.6077,213.846 96,215.5C 93.5368,216.032 91.7035,217.366 90.5,219.5C 89.3951,220.6 88.0618,221.267 86.5,221.5C 89.8333,217.5 93.5,213.833 97.5,210.5 Z"/></g>
<g><path style="opacity:1" fill="#f7c72a" d="M 155.5,215.5 C 154.194,216.467 153.527,217.801 153.5,219.5C 149.651,220.256 146.651,222.256 144.5,225.5C 142.952,225.821 142.285,226.821 142.5,228.5C 122.505,229.731 102.505,229.731 82.5,228.5C 83.8611,226.15 85.1944,223.816 86.5,221.5C 88.0618,221.267 89.3951,220.6 90.5,219.5C 88.227,221.799 86.227,224.465 84.5,227.5C 96.5287,228.776 105.195,228.776 110.5,227.5C 110.5,224.833 110.5,222.167 110.5,219.5C 115.5,218.626 119.667,219.959 123,223.5C 125.689,221.738 128.522,220.404 131.5,219.5C 133.823,220.376 136.157,220.876 138.5,221C 140.737,219.6 142.404,217.767 143.5,215.5C 144.209,214.596 145.209,214.263 146.5,214.5C 146.439,216.592 145.439,218.092 143.5,219C 144.025,219.692 144.692,220.192 145.5,220.5C 146.95,219.345 147.95,217.845 148.5,216C 150.81,215.503 153.143,215.337 155.5,215.5 Z"/></g>
<g><path style="opacity:1" fill="#ecd586" d="M 153.5,219.5 C 150.833,222.833 147.833,225.833 144.5,228.5C 144.5,227.5 144.5,226.5 144.5,225.5C 146.651,222.256 149.651,220.256 153.5,219.5 Z"/></g>
<g><path style="opacity:1" fill="#e5c74f" d="M 86.5,221.5 C 85.1944,223.816 83.8611,226.15 82.5,228.5C 102.505,229.731 122.505,229.731 142.5,228.5C 142.285,226.821 142.952,225.821 144.5,225.5C 144.5,226.5 144.5,227.5 144.5,228.5C 144.5,229.167 144.167,229.5 143.5,229.5C 122.533,230.466 101.533,230.799 80.5,230.5C 80.6287,228.784 80.962,227.117 81.5,225.5C 82.8726,223.793 84.5393,222.46 86.5,221.5 Z"/></g>
<g><path style="opacity:1" fill="#e1d080" d="M 81.5,225.5 C 80.962,227.117 80.6287,228.784 80.5,230.5C 101.533,230.799 122.533,230.466 143.5,229.5C 143.389,230.117 143.056,230.617 142.5,231C 120.836,231.5 99.1692,231.667 77.5,231.5C 77.6225,228.708 78.9558,226.708 81.5,225.5 Z"/></g>
</svg>
